<svg xmlns="http://www.w3.org/2000/svg" width="640" height="320" viewBox="0 0 640 320"><rect width="640" height="320" fill="#e9eef9"/><circle cx="588" cy="16" r="170" fill="#9daede" opacity=".32"/><circle cx="39" cy="317" r="125" fill="#9daede" opacity=".4"/><g fill="none" stroke="#344671" opacity=".12"><path d="M35 46H211M35 62H153M35 78H176" stroke-width="3"/><circle cx="120" cy="162" r="40"/><circle cx="120" cy="162" r="58"/></g><g color="#344671"><rect x="308" y="66" width="296" height="189" rx="14" fill="currentColor"/><path d="M308 104H604" stroke="#fff" opacity=".3"/><g fill="#b7d6ff"><circle cx="329" cy="86" r="4"/><circle cx="343" cy="86" r="4"/><circle cx="357" cy="86" r="4"/></g><g fill="none" stroke="#d3e5ff" stroke-width="8" stroke-linecap="round" stroke-linejoin="round"><path d="m392 138-35 34 35 34m133-68 35 34-35 34m-50-81-27 94"/></g></g><path d="M42 248H175" stroke="#344671" opacity=".4" stroke-width="3"/><circle cx="208" cy="248" r="5" fill="#344671" opacity=".4"/></svg>