<svg xmlns="http://www.w3.org/2000/svg" width="640" height="320" viewBox="0 0 640 320"><rect width="640" height="320" fill="#fff1df"/><circle cx="588" cy="16" r="170" fill="#efc397" opacity=".32"/><circle cx="39" cy="317" r="125" fill="#efc397" opacity=".4"/><g fill="none" stroke="#a8592b" opacity=".12"><path d="M35 46H211M35 62H153M35 78H176" stroke-width="3"/><circle cx="120" cy="162" r="40"/><circle cx="120" cy="162" r="58"/></g><g color="#a8592b"><path d="M453 98Q382 56 310 99V239Q382 198 453 241Q524 198 596 239V99Q524 56 453 98" fill="#fffaf1" stroke="currentColor" stroke-width="4"/><path d="M453 98V241M334 125Q384 104 431 127M334 151Q384 130 431 153M334 177Q384 156 431 179M475 127Q525 104 573 125M475 153Q525 130 573 151M475 179Q525 156 573 177" fill="none" stroke="currentColor" stroke-width="3" opacity=".65"/></g><path d="M42 248H175" stroke="#a8592b" opacity=".4" stroke-width="3"/><circle cx="208" cy="248" r="5" fill="#a8592b" opacity=".4"/></svg>